<svg width="21" height="26" viewBox="0 0 21 26" fill="none" xmlns="http://www.w3.org/2000/svg">
<path d="M13.0317 9.80965C13.0319 10.0888 12.9771 10.3653 12.8705 10.6233C12.7638 10.8814 12.6074 11.1158 12.4101 11.3134C12.2129 11.511 11.9786 11.6677 11.7208 11.7748C11.4629 11.8818 11.1865 11.937 10.9073 11.9372C10.6282 11.9374 10.3517 11.8826 10.0937 11.776C9.83565 11.6693 9.60117 11.5129 9.40361 11.3156C9.20605 11.1184 9.04928 10.8841 8.94224 10.6263C8.83521 10.3684 8.78002 10.092 8.77981 9.81284C8.77938 9.24901 9.00296 8.7081 9.40135 8.3091C9.79975 7.91011 10.3403 7.68573 10.9042 7.6853C11.468 7.68488 12.0089 7.90846 12.4079 8.30685C12.8069 8.70524 13.0313 9.24582 13.0317 9.80965ZM14.6254 13.8639V14.4377C14.6254 15.5904 13.0423 16.4531 10.9068 16.4531C8.77131 16.4531 7.18827 15.5893 7.18827 14.4387V13.8639C7.18785 13.7508 7.20973 13.6388 7.25266 13.5341C7.29558 13.4295 7.35872 13.3343 7.43845 13.2541C7.51817 13.1739 7.61294 13.1102 7.71731 13.0666C7.82168 13.023 7.93362 13.0004 8.04672 13.0002H13.768C13.881 13.0006 13.9928 13.0233 14.0971 13.0669C14.2013 13.1105 14.2959 13.1743 14.3756 13.2545C14.4552 13.3347 14.5182 13.4298 14.5611 13.5344C14.6039 13.6389 14.6258 13.7509 14.6254 13.8639Z" fill="#073B4C"/>
<path d="M4.26653 0.781921C3.35076 0.781921 2.47249 1.14571 1.82494 1.79326C1.17739 2.44081 0.813599 3.31908 0.813599 4.23486V21.7651C0.813599 22.6809 1.17739 23.5592 1.82494 24.2067C2.47249 24.8543 3.35076 25.2181 4.26653 25.2181H20.2032C20.4145 25.2181 20.6172 25.1341 20.7666 24.9847C20.916 24.8353 21 24.6326 21 24.4212C21 24.2099 20.916 24.0072 20.7666 23.8578C20.6172 23.7084 20.4145 23.6244 20.2032 23.6244H4.26653C3.81945 23.6244 3.38735 23.4633 3.04939 23.1706C2.71143 22.8779 2.49025 22.4732 2.42639 22.0308H20.2032C20.4145 22.0308 20.6172 21.9468 20.7666 21.7974C20.916 21.6479 21 21.4453 21 21.2339V4.23486C21 3.31908 20.6362 2.44081 19.9886 1.79326C19.3411 1.14571 18.4628 0.781921 17.5471 0.781921H4.26653ZM19.4063 4.23486V20.4371H2.40726V4.23486C2.40726 3.20854 3.24022 2.37558 4.26653 2.37558H17.5471C18.5744 2.37558 19.4063 3.20854 19.4063 4.23486Z" fill="#073B4C"/>
</svg>
