<svg width="22" height="24" viewBox="0 0 22 24" fill="none" xmlns="http://www.w3.org/2000/svg">
<path d="M1.05238 8.06164L1.0531 8.06021C1.18815 7.79018 1.36959 7.57592 1.60181 7.40607L1.60184 7.40611L1.60915 7.40064L9.8538 1.23321C10.0391 1.09946 10.2239 1.00521 10.4088 0.943733C10.5949 0.881861 10.7906 0.85 11 0.85C11.2094 0.85 11.4051 0.881861 11.5912 0.943733C11.7761 1.00521 11.9609 1.09946 12.1462 1.23322L20.3909 7.40064L20.3908 7.40068L20.3982 7.40607C20.6305 7.57602 20.8126 7.79052 20.9486 8.06091C21.0837 8.33127 21.15 8.6123 21.15 8.91429V21.2571C21.15 21.7836 20.9722 22.2138 20.5924 22.5934C20.2118 22.972 19.7796 23.15 19.25 23.15H14.6V14.4V13.55H13.75H8.25H7.4V14.4V23.15H2.75C2.22005 23.15 1.78838 22.9718 1.40876 22.5932C1.02798 22.2134 0.85 21.7833 0.85 21.2571V8.91429C0.85 8.61271 0.916553 8.33196 1.05238 8.06164ZM0.292875 7.68C0.487208 7.29143 0.75625 6.97143 1.1 6.72L0.292875 7.68Z" stroke="#EF476F" stroke-width="1.7"/>
</svg>
