<svg width="24" height="24" viewBox="0 0 24 24" fill="none" xmlns="http://www.w3.org/2000/svg">
<path d="M17.9 6.75C17.9 10.0071 15.2571 12.65 12 12.65C8.74288 12.65 6.1 10.0071 6.1 6.75C6.1 3.49288 8.74288 0.85 12 0.85C15.2571 0.85 17.9 3.49288 17.9 6.75ZM12 16.6C13.2788 16.6 14.4963 16.3289 15.5984 15.85H18C20.8446 15.85 23.15 18.1554 23.15 21V21.75C23.15 22.5227 22.5227 23.15 21.75 23.15H2.25C1.47725 23.15 0.85 22.5227 0.85 21.75V21C0.85 18.1554 3.15538 15.85 6 15.85H8.40225C9.50683 16.3284 10.7201 16.6 12 16.6Z" stroke="#073B4C" stroke-width="1.7"/>
</svg>
