<svg width="25" height="24" viewBox="0 0 25 24" fill="none" xmlns="http://www.w3.org/2000/svg">
<path d="M16.4343 17.1429L11.6428 12.3515V4.28574H13.3571V11.64L17.6428 15.9343L16.4343 17.1429Z" fill="#073B4C"/>
<path d="M12.5 0C10.9014 0.000226482 9.31908 0.321238 7.84677 0.944025C6.37446 1.56681 5.04209 2.47871 3.92857 3.62571V0H2.21429V6.85714H9.07143V5.14286H4.85429C6.46231 3.35597 8.64541 2.18874 11.0244 1.84389C13.4035 1.49904 15.8282 1.99836 17.8774 3.25512C19.9266 4.51188 21.4709 6.4467 22.2421 8.72354C23.0132 11.0004 22.9626 13.4754 22.0989 15.7188C21.2352 17.9622 19.613 19.8322 17.5141 21.004C15.4151 22.1759 12.9721 22.5756 10.6091 22.1336C8.24621 21.6917 6.1127 20.4361 4.57914 18.5849C3.04558 16.7338 2.20886 14.4039 2.21429 12H0.5C0.5 14.3734 1.20379 16.6935 2.52236 18.6668C3.84094 20.6402 5.71509 22.1783 7.9078 23.0866C10.1005 23.9948 12.5133 24.2324 14.8411 23.7694C17.1689 23.3064 19.3071 22.1635 20.9853 20.4853C22.6635 18.8071 23.8064 16.6689 24.2694 14.3411C24.7324 12.0133 24.4948 9.60051 23.5866 7.4078C22.6783 5.21509 21.1402 3.34094 19.1668 2.02236C17.1935 0.703788 14.8734 0 12.5 0Z" fill="#073B4C"/>
</svg>
